<mxfile host="65bd71144e" scale="3" border="0">
    <diagram id="tv9rMOvpQOhS7E4ozamL" name="第 1 页">
        <mxGraphModel dx="809" dy="487" grid="1" gridSize="10" guides="1" tooltips="1" connect="1" arrows="1" fold="1" page="1" pageScale="1" pageWidth="1169" pageHeight="827" math="0" shadow="0">
            <root>
                <mxCell id="0"/>
                <mxCell id="1" parent="0"/>
                <mxCell id="2" value="" style="group;fontSize=14;fontFamily=Times New Roman;" vertex="1" connectable="0" parent="1">
                    <mxGeometry x="801" y="193" width="48" height="54" as="geometry"/>
                </mxCell>
                <mxCell id="3" value="" style="rounded=0;whiteSpace=wrap;html=1;strokeWidth=1;fontSize=14;rotation=90;fontFamily=Times New Roman;" vertex="1" parent="2">
                    <mxGeometry x="6" width="40" height="40" as="geometry"/>
                </mxCell>
                <mxCell id="4" value="" style="rounded=0;whiteSpace=wrap;html=1;strokeWidth=1;fontSize=14;rotation=90;fontFamily=Times New Roman;" vertex="1" parent="2">
                    <mxGeometry x="4" y="2" width="40" height="40" as="geometry"/>
                </mxCell>
                <mxCell id="5" value="" style="rounded=0;whiteSpace=wrap;html=1;strokeWidth=1;fontSize=14;rotation=90;fontFamily=Times New Roman;" vertex="1" parent="2">
                    <mxGeometry x="2" y="4" width="40" height="40" as="geometry"/>
                </mxCell>
                <mxCell id="6" value="" style="rounded=0;whiteSpace=wrap;html=1;strokeWidth=1;fontSize=14;rotation=90;fontFamily=Times New Roman;" vertex="1" parent="2">
                    <mxGeometry y="6" width="40" height="40" as="geometry"/>
                </mxCell>
                <mxCell id="7" value="" style="shape=image;imageAspect=0;verticalLabelPosition=bottom;verticalAlign=top;image=data:image/png,iVBORw0KGgoAAAANSUhEUgAAAJYAAACWCAAAAAAZai4+AAAAAmJLR0QA/4ePzL8AAAAHdElNRQfoAhQCHxk5zdLXAAAnz0lEQVR42o2ch2LbSJKG9XZ7O+OxRDFnAgQJgsiZmWLOVLRkBdsz3t3be8yr6kZi8N6VbRFi0qeq6r+rupu+MAwdTANTwRQ0GUxCE0WxCSagNRoNnpct06JmmqZl1KssyzJglUrZtxJYEawAls/nwLLZbAYsjZYCS6IlEok42PV1DOzq2GIXh1jqf8DieV4ELNPnAiw2glUKuYoe13mslIeFYNeE6xgqBli6h6WeYIkRrMYxFnDptRCrykW85bkrn0eu7P+BFeG69Kk8LO3/idU0fSiMosYFWOV68wiLBvEYKx0JokeFXB7V5WXoLcN3FvxVfolFgygYkdzyvMUSLEE6xSJUJ95KJoPkuj7AuvSxrmJhbhEs4i1Z9rhEjyv0VkOHINpIRbh4L+UrlYqkM6WA6gDLy630CVbc8xZSxSjVKVY4FA+oPKwGxeI1D4u4yxbYKsvVeaFRFwxbaTZFgfGxCn5q/SLlk5HUugqxvCheHWEdDMTTkcgrZiSKTrNa5VTTsuFOm5pUOYuVPRGISHKFmRUmVzgSEUvxdUuKxDCiW7zsY6HLAItrGHhtEyy8EkKswnlvBePQo4oXmeRlgHV5Loi/xPJiyEuIZdqOY9uO65q6Qa4DLMuSDkdijnIdYQFQIplMpUhqZU2HC6kufYE4CSJyHWA1QyyRYDktsDa1Vst1vAgeY+UPhmI0txKJVCrfaBbj1/F4zXXE68tTLCOqpxF3BVTNILX4poFjELHcNgUDqiiW+CusdIhF0Aq6Y5uNbDyju46cuLz8P7HkiG4dYwl6BIu4rOV4WCTdTOFQTc9jQfwSZUPXTNtoiI5rSwnw1nXi8vPn0yAi0wmWn1yNRkS4TAe8RLDaBMsNsYx6JOULByMx42OlU5DuyXSxVNHwda2WLaeuYiVZryLXSW6p6jnhCnWL+EtHabARh2K1WpD6ESzucE70sbzkIlTpbDqRTKUzBckxdMtudx01G+csx9bz8ULy8j9WEPKhnAY5rxEdpVhtDysSRKMaYBXPY8HXQjaeTGY51TEVUbba/ZbBCTCUTY3NqWo2hoGM6NZxvXVuJKKewmBsUaw2xbJDLJ0the4KU8sPIo0heCuRrJqOpWuSqLb6LZAceL1piYW6Y9azVwGWHtGH4xhGJx/MedM03CiWY4VYGhPxVuEcFhX6RFFzbEmzTV22uy75zUzDcvmi3LK1SjD5HI/EM3JKuRoaJJfuECKqD/CGnjzAaJDLpV+VgYG3QEgzNcNxtFoVKhLdattOy8Ffy7GUqtxyDDV3eeitk7oGuAThwF0Ey25745BgGYFqmc1o0Xw6+dAgJjO8YbqGwKZSom5YLcCyMWNbtqEbrqsqlWNvBXWNHMESjrFQITyhh+FtmQGW1SwdYOXOCUSWkU1VdzWxUeHkRsMAV7UdMsBtwDDaulRPhVgH4zBa2ARYwFXnVYyVQ8Zg+xDL9tX0UB+OsZIVTHbLNXTTMDQ2y7uu08bRbJotW1fVVkttcohF6tPDqee4CvS9VW/oiGWHWC7FImWEZdTOzNS5MLcIVsl04A1cw4CxY8hMzcEZA6cwq90yNdnqOIoUqU4j7pLOlPIUSzBJl9GiydUKsUitY1SD3qdwLuXTmFoZ1VbttquKqoGpI0E6IRa8Q6tlGYrmupYZqeV/1WE0I5n1/8WKppdH5WOlC6op6+0W8Fg4Iau647ZdYDE0uwXvrZgQ0QBLO4t1qlvgesByScbjjA2/mkXzHb7qbLTNCHqfTKTeSmdKXLPedCCIhgnlGrwUMhU1wjQcVzddYHadixPZ+lXjE1Q2aAFWywUZpKMQfoLGhFhIBliFAlGxYj7AymULlSYUD5oCpYGOWkyw2hhL0B5X5GT7dPKhA5HmfPMMFuEiCkGxdM3Hsqi3mAp4qlSGjpYt5/PFCoN/mHIwJ2ayeUY1tUY5l80Xyk0UrLZtY34BGvzGVrUkHmApB5PPWSxBhl9RJTLvYamyRTPLG4kVli3nCpUKw9Xr1UKuVGVL8NMrAVYqna9yisVmYQpKptMVQ8NUBzSU1Zal2y0xXzgTROXXfSLkPLGm61fMrZYoWKS5oFiFAsNWiln4yla5WrVSqnBsJp4sVSr+5JNKF+osb5TJN5ksq3IiJChgQWK12k5Tdq1y+nhOPNcoRrCQqVarCW7Lx3J5njBRb9Wz2QpbLhbL0NFCXwvdbbVWScSSlSCIkFz5Yq7YyGOeZfP5mpwr2i3LcVHJIGUlwXKFZGRO1DxVBS4/70OwCFYdsVwfy67WaeMDX01DKuQZTPtKYAzLpGNphi2FWHDFiNkk9j7pYr2WSBht28UgwlcoIGBeyka8Bf466stogkliVLoIVyOCxfERLIUtVbD3r4RgDFNMJEqet3A0AlZR0/KkVUzm8snLpNV20P1uC5LLNVTbKh9Up0qYXZG50ct9n4xgOQGWK4p2gKUJDPKUUbVCsHIhW6Ipn07nMpliNsPDpJ6MQ42ayOaurwo21JJkYMONAyPbqYdyClyKclJwAY/X/kRltUH0lAxGRxaD3DJVDlfgSkXseUAZymE4y563irlcs1hUTceuJhPQbGQqpVzZJFjYFbg4aZiOEq5vEazonOg1ZKS2CeZEGkfebPlYLuSobXpYMqEqZIlfyiyDfiPZD1ig9aATfKUkUvGzeGxk05VapWbBZIH5AGkPE49hOMZF6CztaOnUo5IkEkJK5Rmvu4HKyzzORhhHy5TQMaVcOhG/jsVT+VIZBmUJhySD3ipirdas8U3ozFXJslnIrWS6xktQQ2BWgUpAEG1Vse2Lk3WkQzkVRS+YtNrCAKLf9JZvrlynWFicSuiYQjYV+/zHH58vY6kiBLRUBqHgKqV0qoGVbL0u6w66xHLUTBxyXhFk8BK0i1BDQCwtG/TZugj1wQ9jJNMlKbgUGj4TOs5AIIol1Q1vPdU0xXK1zkJqpa4+ffrt779dFTCIgAX3lvNY/ll6rW5BS+EYNlRY9Xg8xcM0CEjgKEuFNtuFit6wlQOsgyUIYtRz1F184KtGw/J91WrJdd1ftTTFSkOqlRmOyVz+8dvf/n5VrsBkBEFkayxTNxxoUQ2uYsKPdqFod1yrkWU0UTHBWVBBSEVGw5y15Xr54pQq5PLLeiKqJ1guljWttlqXQYg18j5CpaHUyyxfy11+/u1v/xWvsjgUIbWqgAXJ51haMWc4JmApEEnXFhStkGZdF+6xuURKMmEMGZVE3FsaOVpHCqiUY29BfiGZGWC15FqtCsVCFY0p83KtwlSZfOzz7//1tyTPsRxL9bVShUHhWGoBamaosAwRvrEVwZQzsRzIheOapVisASWXI2QPVgNPNjEolhLFqvO1ugDZZRAkF/+J9RpZayY7BhXAYirFfC599fnTpyLP1Ro1fBCcxpAiVivXbGgnXFu2XMsxtZaWvSJYjlG8igkwEBwuHru6+NXqFgULsUQPC1dwBUFHJDSoIGp1CBEoAPnhvFxnmUI2V0jGYulqjasJNdQy+FNScC7QS1VIdnCKAW0hADo2A1goL0bhMi7puu1w1+CtaGodaDwxnLYPsGBAwkgURFXTDTRdrnF8HSoYglWpNMBbLFOscDARZvIlttbgUOPBYfmyBhxKqQ6/jIEjztEVGJlWI5bFxSlLywOWXGFrxZiHddhVR9zle0sKUl7AhIcogqSiuHJVluVgIPA4N2NlKkocw6FL2fjnz5dppgbSAFxspZxNN8BbCqNgl2O7MF+prGrrZuM6rUOvYYrpy5ggpslWC1kNpHbUWUeGoiRS4SKzIR2MDZ5gYVaBVtbqPEO0nG3ITY6tCc1mg7n+7e+/pxgO/AgPVbGCgLFoazw0NoCF68B6qW5bBhdL1IBKK11fgs7FyVozYpGlIQt7SSNSDp4Uqk1vYmyEWLxAisJard4AFoCRZBESrd4UeDYX++3vn9Isjk4PK1NsWo4hG6jxJjbRaqFg2CZzdZ1RDE1KX37+/NnbjvKX3RBJCxqNYFiSZiNS12MNEXbY9booNXCKhO/rZHqq1yCqDNcUuMz11R+fLrNARWbqKlOCMqsE/Y5QB1HVQIENqZpJNR3ESoimxOHS6Wd/v+Co84nUzJHeJ9paR4r6GtcQcJOsCh7kmxw2YmVQMKYKWInY1R9/XOVrHK2eOVKdZmRDY2AOsnXdNJVqJplgiC5c8xYH82hA5XkrKEy10Ed+5EIePsAB4zgO5LMGeglxqoG3GizRLUhx9FYtffXHb79flXiIKcECb6VTJV1XSmVId10zTCEXj8ezpokDr24L6Suy0Bx4C8MXKgStUIN8akbWkQTfTTXKBVgceKzWqNcwz9gKzMoVuEWsev7qj98/Z4h24FCA3MqmU1Vb5bIlp2Vqim42U4CV1FwGsDjLrB5s+lwEiR50PpBjqtdg+MUNWXzDootvUC6OegsMWptqFdOKJQLBAxYPKV+A4qAAVJhriEWCWNCb2VRGgH5a0gw5C2VzomkD1jVrWXwsunMXzImep8BRpMCJzkNk7qGuw4TnQyxv85XhpSZPrqoNHso8eE6lCF01NIqgrRXSmJHOp96EhieVK5YKZZZFrHi6nAOsqmXVYiHVERah8rDUsMkQm8FuxlmsSqWmSHA3Bhqf1iA6C4MQmBiWtou082HVAhTK0P9Ac+FvdEIMr0HRakfeiiwGqiqOQNX3lp/6TSFsMX6FJZMQ8/A4jgK6rU7GIFFZxluDKMtFXKUslQowNDC3EknAugYsk706xQpSHjvXQLVQJBCL5BXtrvnzQeQAiwenMFyDh8nGR/KxCCT2HRkoqFNJuvTWzIKr4nF01nXN1vJRrKujWv5ATCmWKAmNwFu8AOlcJ1Qczoc+lqw061UYC3WeY/yulehohcBhDZGN7r6mFTmf9E5BAFfNllOXJ1haFCusU32sxiFWI4rFBFhERGo+VaXCBDek/S9nIxt3gCWmg1MQsRhvi4nLKNexykewyKTjYaFMECy4DLGqEW8JHK7QMOHiAy10PCzQ/0wIlUxmlFqSHmYhXLzTiB9hHe2QhS2Q7OeW7y3wF+Q01BI17ii3qpJcp71zBKtc8rFwX516y49iVq4kIlgNh78+CqLh67ynpmqA5ZcPgkBE1dMttds1676ceoOOYtHzGeexSG6lgj30rBJgXUPKNwOsUOWhpAmmHwRRjxtsMVzcbQDV6GaoQ8SqEYFgRfE8Fl2gDLH88wZZlfWPZ0DGx2VHOMIipZYZlIJndxa9+RHSXXIHN2A9wZt5fG81oYDwD0sFXKWyPyYhiMFIJFhpmeSWl/NJzRFPcstTecUXB1K7w79g8ycoA8FVCDW8GSrVw9xqNmu0xYhml68UFCsTFYgUz6fC3MqYthA/zK3oci4ua1EfKYetmUSXBM3+cDgErGFX4iJBBCxBoN465Amxyke6lSw1steBuwq2XY9dnlX5sE5WCFQwKZKKHqmk1pBaz5LqJ1jVY0958w8NItWtQB+SyUIzHw/O/pRs2ysgIil/vOVDsNRjLFHtUKiBq/C1YCDSnMd6tBxdmfTmQ/8CgbMHJ39KavE6OL9VtQ3m6gzW0S5ngCXRrQNZkdT2YIh/+i2jWedCfQhSvnbAVPZjiO00GasVsrSMZOSQTclgfarr64at5CLnMw4mnzNYCl2DkLV2pzscoHXNZqRmJlishxVFKpc9LlAJLLfqmg0Nj1C11GyaHkjK6c2kBxVPSJaQOsYyTvf1D7EUozNAqP6g78gCqZt9LrbqBVEQagEUjsdKlVcaFaJoimT2puvNZrudjlZLJUuDmJL0vI+VUa369Xks9RDL95wOTQqEb0iwuobkdRteKY9g9MAijERfRIl0yd2bSVdoak5vsV5tdrst2KavuOsJ4512Y0zBc1c8r5u12AFWMBLVw5FIpyFFtm6GfY+qbSrB2u5BFBGr6WNhY18XjNF0Op3cjCbT6WaPULvNYt6XCkXZZD1vpUWT9bAYQ6/ELo9S/uR0hjcSEUuxBjdDStVVm2GfGAQxxPKDyBr90WQ2m1Kbzdb7/W6z2iwmJpdP474iOScFJXNRV7MxxErwppK//E9YwXogxVKNTm9AsLptSxSwJqb9op/0/pwIKV/3glgfAYtPBZfz1Xo5nSzmLgsdWSaV9rDA6hYfR660bAiZ/y8W/tM7/T44CgRUlyWs8/wgkl7RqwS9ycfHqt1EsEbd9mg+Xyzmy5tGDvfs6lIhOAub1YwSYMUKmlGN/ycsrw1T/PLZ6aMB10CXvL1Fsjjib5TVarQNBJVv1ql2lpk2Mo37bRCVvsNX5TFQzeb9Ku485fvDang0kDWldOw6VjG00mHGw0jE9RojWs2TVtY24Mrt9oCq14WZsKOI/pZB2O775RaZfOq+QMjT8bBriTVsbGtspWItF0PT1BnIp1R1Nqim/FOU8WTT5BPQjZly7uoMVlgJ0pJLUZ2eC77qgfV7jmZDGNuWBrWp76awOqVtDWJ53qrUbFvmq3S5FO/jR4uByFUrIFgpZdEtRw405zCMCdEU0wdnFqnKo5M0lZYPdCJUzE7banV73W6vbUhNicyGfb1xgBUWp9Rb/mRTrrAMnX08ZmM+FOGuqilUuwszH2LFoZuWkhnVbCRPsY4UgqxLqu0uWK/XdRWs/lBRBwOn4e9yhksQYQXBB1hlv/rzOsT6dCxg6dwZDWYTMRPFyulGlTUMPn5EFc6JNOPJmrciE6yOYxMFheZVxwFpnMVifSwWnRQe5w/rCG44V7GKUCfTRZtJBSeHcQVCNMSmaXDnscJleTIzA5jhtDsm3RoDMFLTDNpKgBWIPEO5AKtRZUN3USyCxlRrneUA3FVi+rOxnIt8tiCRKYqGooC3Munk9Xkskl+0QiUlKdwECyIuVfpOs36c8rSoYjjEYryqOeIs0kPWHRiLfLlYbM87bDo8lh5nQBlhvFkWDnsx/fk8lqpGtoL9pSPEkrpE6vt9NeIs5KrDLACDQ+H5pqy3WjJbPo0hW+UdUC61XKgMZ1YhFcGq47kY0yArypZZ+XxYy0dOBqqHpw28ptVAoYc5G9Qx4izAMjf7u7u72/1qOlust7uV47fSFSaoTdmmNVou52a5IMzmdi48ah2P18gat7fpZ1TOrkFEt8cODySJrUF/eDMCrJ7kL1BSrNZud+vZHsuEKXfgKLI8qE8Wi8Vy0WYrrcXcOcDioh+hMJjj3PLa+9M9YcqlQP03HI0HMEEaPOUiKc9Vrd1u72NhRTXlvQhSulKxxNmzJcw98FdSJrNpq0BPgFMs1gg+BQMyVT7Bwj/BlBjtDQmWBX66GU8GbnfgNkIssOZotyd2e7tbr8dto1YKM6tcLBTqfXDVuN2BOqLdms+mN3oxIlsVulVB5xm9dGYk4nmRM0Eke+jtQR9KqElftwddKYpVrTYmux2hWk86plhjI+OwXCoUmB4k+0AXmt3FctSbg82UdIhVJLtZHtmBt2KHLcaZUxBNpddvt24m066k9vp6BAsFouth9TSxGlEtclUsKVDTDLU6y0oQxjHB0jMhFlQ2FIp8aOjQW4erbmfOfxu9nqUPZvOO0GwN2pEoEiyA2q13247E+y1PkPRlprdcjnXcruJuFqvlfDGfT+V0GEWo/ww/6001dzAn+vpwcmbEPy7v9HuG0p3O2o0GXMoUqkbrh6oxmdz0nPl2QBaSKpUIFNQS4+XMIXtnXH+5Wk4hoBqTDuutZDOgsmACOvaWPxSVyI5PgCW1+z1Nai+308FgPB63Wm3Hdh0QQRwlRtuVoALrbCZy/UhJ4VZbLMcqxpYRxovlfLKcWyVsX/0gQhFv0g8MWZaUPl4aOXM6I5Jbeq/fkcXe09Pdw/393X66u7u9BQXFwQdKtV/Yda6uTpYGf4hVLlXd6Qq8xeLueWuBJepy3tFVDd5eqOfITM176Q5sYvZzuOVzWEGoZ+RUdEHcRbGzXC7v7h8eNjfj2RgaGyjQl4vFBmRrM1AltbXqNaJYeIhFgXQCGa0USqwzX8xmKKrT1WpBMt/NJ1OZEsktkyz8qWI58YvC5hyW1IIYCmL3Zji9vX+4m0AN3b1ZbjbL2Y1juiNst8aW4SxXbrUUzojlUr7Qgt9kMVHz6ZII43AAJf0Ckbz2o6NJiu7Lg0XQlNJhEAOVPxNE0Rl0ZEHqIdbd/f5mMFzswGuP97eboWNavdVuv5v1x9vdwqhEsCqF8gCw5u1aNstCCMfuzZxw+V3RbDbu2TSvaHJZdDfqBEs+iyW3B67YVAaj0eLu7v52sdzdQ4rd3eMMvZlPRuMlJNh2CzoxqYfuqrAVBrw170hMsazMFrOWNVpQd/nN2mw2Gbo6pBmeCmCrHCfwhasTLKhq1DMqL0NqmaKoD8fj5R0k/R0xSHryFSboJfwAaAO3+9utXoqmF2uvVgOJY5jaYLnomZ0ZwZqNBl0bD8XbnfF0MmpJ+Thd1E2kiqmrU4EIsSIfPgKeXr+riUrrZjyeQW4RTxEsuAAqsM243R6vUesHLDkGi3vDEE+2u17adejKjMVq2h5QqklLruGyYA6eJ7Qnk3G7THbIEsl0oXJ1RregjNfCTUQfSwJndS2zMxiORuMN5BTBukWsh/tbOk1vxuPNfgd/FyJMg2XWW2GuT9ZTBURXmS7n/SGJ32IxahZS9POS0DUWnelk7JbJFlk8VWai26/+SCRiGskt6iy124dWEfvq0QypgAXSCkQLsaDEIgXEbgcXk+1u22XyBYbzsNTleiBUueZ4uRh0UU0QaypnQEVpe5GI58zxZOJkYpd/fPojwZWvzk0+sqJG9/XJQRHJhPlQ03SrNVw/ELvf0vAB1t12s9niTI1U2854t50383mG7qQz1d564dSrNXe1GLfGKyCa4FqEjTpKJT4Rj+XM0WTciH/+9Psl08yenRPlM0d0FbfXVbElM9ePj48Ywocw79FLAARggDbUjfl2bRRzJXIYlmWb89VI5jhpupq2uqhgXXcKXDcs2dtM4AcBE8mq2J1M2oWrT58KWj3x+XPIdYIVHYk6dNVyU2hI0yfAut9Dxj/sdh7WnVeTYiC3HUXqbDbdSi6Pq8rQV5irZYvnGsPlcuhMAGuskJJwJiVDrETD7IwnYzH56RNncNefj71FNzGUYyzJ6fVdCbzVeXyCAK6Hm/u7h9v55tajwkqLpv1+pjW1xXZhljJlwsUN1jOj3gA/zbudBWB1qlkB3DW3snh8MolU8WvOdqG+HFY/f24YzRQ5nBEdidHPREU+igETT98CLGWFVLuu2kJ/LQZLwnW/gzlvsyfqtd+2hOYQpiQlU8Bzuoy6XI11Eeef6WCEMXTKqYy7mC96pSR+DhDqiOvra9Y0+5PJ1M6VNE1IBWdGwiCeHvYBLK3bb6uSbIweMIRjmW+MwF27wXCLVA/L/mCyoV3PbjdVhNZmu7ZzmSI4ix+v571OH9w0G8GsAzd6KZ3kZ/PFVEinU4lkJpWIXV1VTNOdTKcDHQqbfOwYK1qaRuotycHiQZ3fPkBmgbNgnjD2MBBnvTFx19jqLAEKhAIH49Dpr7ebdjGdK1fqnfVq6Iyg9IMZ/QZKh+VYKqXT5QGIRK+cjv3+KZ6KA1bZ1PWb6XTkWrqYvIxQxUIs7WivTpLbvZbeNO4eH5+eHu7mrUa93hjDSNwOenOg2o26cyi6NpsVaPxuuxy5k+1mblTZpj1arae2MV0vl+v9YroE1eo3ShA7cQolhJ6P/fZ7DFIrdl3RhZoxnowUpimlrlBWyT4/WPQQnnKE5bZVkWI9PmwnNi5vKWvQ0Vm3vwGBWK5wKG7WiAVcE83dbDbr2XS13aymrmyBs+bruw3IwnI+5Esw8rImlF03PGQRytZ1nJHLRbY3GeucrpMNM6qzYOewJA+rZUuiAFhPT4+387GNGxj1LkRxN+wONkQggIsMSNSuhSpPgWuz3W6WI1vWxuvVot/qjjC15lOxiJlebEMF6RSuY55uSaVc3p5MnWpTLyaS/ufm4eLidFXe95bWhdqhqWyeIIbb2dhqKgp8O9rv71YdZ4JVhNdQk/lntzEb4K7lHAqWliqIA3Dj2G7UHEyt+UQqkZ0objSZTUy2VMmmctlsU86n0+p02irmpFIq7X1sFy08PHzyWS2rZ2Bpc4MJvxq3mrykA5e6AprxYIsVvUe1W89wr6IjOevtrNftuFACW6vVetaRWdYhSxDjZjmPP7XUmUNoJ6Oh2SiWtFGXzWQUKFWLWbGSzuBn4OinLHNnsBQ695DUEiV9DFj3s4GGpwEbgqjPCNCdR0WLiDlK/Wq+3m7Xc1SpxWSxXi37Klep6Oit2aBZYcpMQ3KgjLxbQy04n3X6415XLOXN6bRXzorVHJ79Jx8wLhaLJ5sr3owoKVZ/2HY6/RsI4uPdatp38Jmt4c1sD6JFzSPb0eyi+01bcgN8iwHpXMUZcA4cgakKMPust8vVZosdymK1uTHVWqncmk66TEGuF0uBlUu+nHqbGDouojit3uBmgqmKs9geM34NmrSCoYWdCxHTeyy+KJ83ZyMTyXhiG5x8sHOtT1ZQnbbUqjx/eVhOx1Nw1Xp7e/fw5XFx09Xq4mAyGXBlVTjYJg1GouW2e8PxbLFcrYktF7QnmO9B4rcQifVqSwR9e0twkOjOc5k3MRI+6jOwlcvhIjh3A7/N7mHujL48rexmQx2MBqDQ9w+Pzy8vz4/r6Xg8uRFYVWSCEztwQbF0zZjRUoC8J6bHnHR28JagW4+32/UGKpg7UpySWpDw7HeAuFkDCSWiVEQjwCZNqCSq3GC1Wt2/Pe1uvzzuukqtBr3UeHO7vX14+fr6+vr2NJ9Muo2aLLH+8jXeerml6su9t4QGPwviBbamdzyAmsK0DK3q3cPD7Wa9v7/d7iggRvOOxI+UqFsPi/5u65WJp9W5LmCtn76+vb2/v7297qfj9ePXj4/394+Pj2/fPt6fVlChNhpik6vVQ0NvGbqqANZqTSsW7OPRMw+kdL8HkX/YLZZ78j0AQFu22VF3kermntwLjl6vsVrd+bm1WncbXJXlXMDaPL+9fwWyj+8/Pl5fv377Dvbx8vz28fF2txrf6EJTlr3PCNCTwDSIiqwvd9MZKZ+2WKwAwy3WoVBRPUDKb5Z7kuB3+PNxCYIkO23MsKoniQVY/nik6bWaDCxRxtp0/fL+9vwC/vr2/SsQfgNHfbx9ef76+v66no37iihrOt0E8OyCzDuKpC134xEJGjhqt4V4Qc7Q9L17wnoZ0mu1AaYd4SJJf+e3i75+3dJ+w096+LKaz1drcNfd2xt4CyKHRBA7DN8rEj7PRuOeIoMEKFLELlQ8GaXK+mo3GtLkurvdbMFb2zVJ4c1ySwrm3Xa1hiYVMLar5XobrOVS2QpHIlUKiOgaMnSLkIC1XL28PL2Q9Hp+fkew79/fbxf372/349HIURVNxw93hnbh7SAay/10tCcLRHe38xVibcnP3Cw3OBSxyyFD7+F2PXbdVqd3M55BcUqUlPwLRuJ2Q3y1mbecwQRa5+EE3AWS8PIKufTx9fXjO7G3uTF8fVmPx30DP+x3eFaY7pAZurWEnN2jLgHWArx1v4HeCxcalisoTnfz1e09BBJEa7Pu40osfnLcRt0dT5ebUB8oFsn5Pq7D4LKoO19t73cPXwGLJPv3H/jl643WgcpkMnIN3YgaCtaFRZdUnRXEi6Q8+Gi1h2TarEh9t16sYTDuNg8PwLjdAee6iwssTrvtmOQ/sHFaE/DVCgR346UVoRq75L+dQhsu94/LO4pFwYDs63Y+AYmc9K2I0X0Ww7iwHTS7tYLsuaUD6RZUGVJ+0hkst8sxTDZQQjw+QgBvSa5suvi/xLjtbhs/Ew8vdueAddPu9Iaj6RxnCYjgctQmb+y48K812Tyt919eYQx+D+zj/WW33i0nHZsiRMwyL7xPN3XWkB/YkkIIbidLwNqOW/3Ven6zAEEGLij47naQypvtqmuTD7Z1u95nV/rw+2z79MPynS7ueExG/U4rNLc3f3je3359+/gesW9f4HWzYdv71FfU3IsOWLvT7uG4Izs3gDXfINak1R7j7Axj6xEH4y0yrzbrZb+NL+p0O+0BgvQWMDQWXXIfcuFmcsc3+t9ZdG7Wzw8Pb++A9c2P47fX3WK3GveCZ7bb3g3cXvSIdfurEAtEE0firHeDkcUVSezI7kAUNjDuV8tBz7cBbmdPICW3N/RtcCeZ3PrPwF1c+Ka/fPkKcoq55cfx42m1WM2HvXPWvRhQu9lQrA1i7fforeUC++c9iBSZru+2uLGDIjQcBNbv98dYWMwH/8FwR3nz/uXL25snWeCq798+nhbz3ZKelDmxixtqI9R0sqYAWDtcHt3hjwPVACyYESGI8NAK57el9wo8vDgcjrGD3YyGN782PE84e3l4BKxv3wgXRvLjebZ6Xo3Ov+RiTG2CWHsSRQjiBiYfdBxUcPPldgul1+3jA/RWUAZCJea9ZAR2g331fjcbjca+BVfBffjE6dPz6/sblg2edgHW6vFlQR8dBa/0ri+mE7rCutnROgDKk7v1GqIIFQXOZlhowe32AQYjZBliTcmy7ARsPNuhS5dkiXZK7iRfp+E1tcn0EYqZQ6yX59eHOX2f6bFdzKktUAixfNiAzzYb1FMceDjnQMKB3dJVtzVMcVBOkxVjmIbJysgKS3OsHPFeshswP7W7929RLJirX99e7+hrZicvuFhSW3lY4CxQTawg7rGRhxzfEiy4G1d0H7AahWxbYZsFtRdus2Axi0m3Wh7a4uCb21fw1kcEC4vCW/oafLNDu1h7Rhb2cG0PZHOPAnFP1GIDWP6Mh7UyzEG7zQ7lfu+tvCH6mnxZrX9lgHwHrnqLOuv9/f0rfTFNFt/IXRde1bbdkXVQMiVivY7e2pOWIqhYtkTO6BIqKVX99cCwwDpnG/ogaDzxlq8QcAlYkVcfvOhiT1cRvKqJeuvO+6l0sc+r8Xa0x/DNW0ANSi2yihq16He41f71/Z3q1jePCibFsGnae6Hy7CJYB6Vu8oxkUfSO8IF72on5d9AK9e729Mm3wRfyaIiFUo9cb8/RZx+8w0U0LHj7QH7uw0NwfxA47/ree0L45eBpB+Z5ltxCcfr67lMRZ3398vAru3gihmtYT/gXL0kdQ8z/Hh+O2lP4wCO9eDprjw9Pz89fvpBnPL9C5+PHkHC9fnk8Y/jkp4tnfB0auX32LLx6Du/ynnb67Zfj5wWXbz/+/PHjx/c3fMPXYE7EHgOxvDcB/i/PL1+/fgnt4mvEXl5egquvvzBo8/znQrf+8usn4nO+/fz5119//fzHz2/4NMQi/vI617eXryAaX1+ev358//Ovn3++hj/94i2wV/LnDTtw+gXvoo9439EbvA3tjf4L38R7Cn75+IlYP//6+fMHeYi00tRATmEE/Pjnv/7x59v7X/9A+/lBXvyOXy7859GXBK8L3+Dw2n/y++GdJ08hd/z4CT8M7B//+BHQkB7xg+b8j3/+97///S/Aplg/wre5+H5g36Lf/Aju9RqWH0fP+3HuydH7/vKwfp55FN70J1D9+9///c9/UKyffwYPXvz48advf/3pXf/488/w3j8xaSMPRB8Jn3HmGi9+Uqq/fpDUj7ziL3yzf/77f/4HsP7lYcFf/+H/BX764l//0Yr9AAAAJXRFWHRkYXRlOmNyZWF0ZQAyMDI0LTAyLTIwVDAyOjMwOjUwKzAwOjAwQeu+6gAAACV0RVh0ZGF0ZTptb2RpZnkAMjAyNC0wMi0yMFQwMjozMDo1MCswMDowMDC2BlYAAAAodEVYdGRhdGU6dGltZXN0YW1wADIwMjQtMDItMjBUMDI6MzE6MjUrMDA6MDDQnGoJAAAAAElFTkSuQmCC;fontFamily=Times New Roman;fontSize=14;" vertex="1" parent="2">
                    <mxGeometry y="6" width="40" height="40" as="geometry"/>
                </mxCell>
                <mxCell id="8" style="edgeStyle=orthogonalEdgeStyle;html=1;exitX=1;exitY=0.5;exitDx=0;exitDy=0;entryX=0;entryY=0.5;entryDx=0;entryDy=0;strokeWidth=1.5;fontSize=14;fontFamily=Times New Roman;" edge="1" parent="1" source="12" target="14">
                    <mxGeometry relative="1" as="geometry">
                        <Array as="points">
                            <mxPoint x="380" y="220"/>
                            <mxPoint x="380" y="175"/>
                        </Array>
                    </mxGeometry>
                </mxCell>
                <mxCell id="9" style="edgeStyle=orthogonalEdgeStyle;html=1;entryX=0;entryY=0.5;entryDx=0;entryDy=0;strokeWidth=1.5;fontSize=14;exitX=1;exitY=0.5;exitDx=0;exitDy=0;fontFamily=Times New Roman;" edge="1" parent="1" source="12" target="16">
                    <mxGeometry relative="1" as="geometry">
                        <mxPoint x="360" y="220" as="sourcePoint"/>
                        <Array as="points">
                            <mxPoint x="380" y="220"/>
                            <mxPoint x="380" y="200"/>
                        </Array>
                    </mxGeometry>
                </mxCell>
                <mxCell id="10" style="edgeStyle=orthogonalEdgeStyle;html=1;exitX=1;exitY=0.5;exitDx=0;exitDy=0;strokeWidth=1.5;fontSize=14;fontFamily=Times New Roman;" edge="1" parent="1" source="12" target="18">
                    <mxGeometry relative="1" as="geometry">
                        <Array as="points">
                            <mxPoint x="380" y="220"/>
                            <mxPoint x="380" y="241"/>
                        </Array>
                    </mxGeometry>
                </mxCell>
                <mxCell id="11" style="edgeStyle=orthogonalEdgeStyle;html=1;exitX=1;exitY=0.5;exitDx=0;exitDy=0;entryX=0;entryY=0.5;entryDx=0;entryDy=0;strokeWidth=1.5;fontSize=14;fontFamily=Times New Roman;" edge="1" parent="1" source="12" target="20">
                    <mxGeometry relative="1" as="geometry"/>
                </mxCell>
                <mxCell id="12" value="" style="shape=image;imageAspect=0;verticalLabelPosition=bottom;verticalAlign=top;image=data:image/png,iVBORw0KGgoAAAANSUhEUgAAAJYAAACWCAAAAAAZai4+AAAAAmJLR0QA/4ePzL8AAAAHdElNRQfoAhQCHxk5zdLXAAAnz0lEQVR42o2ch2LbSJKG9XZ7O+OxRDFnAgQJgsiZmWLOVLRkBdsz3t3be8yr6kZi8N6VbRFi0qeq6r+rupu+MAwdTANTwRQ0GUxCE0WxCSagNRoNnpct06JmmqZl1KssyzJglUrZtxJYEawAls/nwLLZbAYsjZYCS6IlEok42PV1DOzq2GIXh1jqf8DieV4ELNPnAiw2glUKuYoe13mslIeFYNeE6xgqBli6h6WeYIkRrMYxFnDptRCrykW85bkrn0eu7P+BFeG69Kk8LO3/idU0fSiMosYFWOV68wiLBvEYKx0JokeFXB7V5WXoLcN3FvxVfolFgygYkdzyvMUSLEE6xSJUJ95KJoPkuj7AuvSxrmJhbhEs4i1Z9rhEjyv0VkOHINpIRbh4L+UrlYqkM6WA6gDLy630CVbc8xZSxSjVKVY4FA+oPKwGxeI1D4u4yxbYKsvVeaFRFwxbaTZFgfGxCn5q/SLlk5HUugqxvCheHWEdDMTTkcgrZiSKTrNa5VTTsuFOm5pUOYuVPRGISHKFmRUmVzgSEUvxdUuKxDCiW7zsY6HLAItrGHhtEyy8EkKswnlvBePQo4oXmeRlgHV5Loi/xPJiyEuIZdqOY9uO65q6Qa4DLMuSDkdijnIdYQFQIplMpUhqZU2HC6kufYE4CSJyHWA1QyyRYDktsDa1Vst1vAgeY+UPhmI0txKJVCrfaBbj1/F4zXXE68tTLCOqpxF3BVTNILX4poFjELHcNgUDqiiW+CusdIhF0Aq6Y5uNbDyju46cuLz8P7HkiG4dYwl6BIu4rOV4WCTdTOFQTc9jQfwSZUPXTNtoiI5rSwnw1nXi8vPn0yAi0wmWn1yNRkS4TAe8RLDaBMsNsYx6JOULByMx42OlU5DuyXSxVNHwda2WLaeuYiVZryLXSW6p6jnhCnWL+EtHabARh2K1WpD6ESzucE70sbzkIlTpbDqRTKUzBckxdMtudx01G+csx9bz8ULy8j9WEPKhnAY5rxEdpVhtDysSRKMaYBXPY8HXQjaeTGY51TEVUbba/ZbBCTCUTY3NqWo2hoGM6NZxvXVuJKKewmBsUaw2xbJDLJ0the4KU8sPIo0heCuRrJqOpWuSqLb6LZAceL1piYW6Y9azVwGWHtGH4xhGJx/MedM03CiWY4VYGhPxVuEcFhX6RFFzbEmzTV22uy75zUzDcvmi3LK1SjD5HI/EM3JKuRoaJJfuECKqD/CGnjzAaJDLpV+VgYG3QEgzNcNxtFoVKhLdattOy8Ffy7GUqtxyDDV3eeitk7oGuAThwF0Ey25745BgGYFqmc1o0Xw6+dAgJjO8YbqGwKZSom5YLcCyMWNbtqEbrqsqlWNvBXWNHMESjrFQITyhh+FtmQGW1SwdYOXOCUSWkU1VdzWxUeHkRsMAV7UdMsBtwDDaulRPhVgH4zBa2ARYwFXnVYyVQ8Zg+xDL9tX0UB+OsZIVTHbLNXTTMDQ2y7uu08bRbJotW1fVVkttcohF6tPDqee4CvS9VW/oiGWHWC7FImWEZdTOzNS5MLcIVsl04A1cw4CxY8hMzcEZA6cwq90yNdnqOIoUqU4j7pLOlPIUSzBJl9GiydUKsUitY1SD3qdwLuXTmFoZ1VbttquKqoGpI0E6IRa8Q6tlGYrmupYZqeV/1WE0I5n1/8WKppdH5WOlC6op6+0W8Fg4Iau647ZdYDE0uwXvrZgQ0QBLO4t1qlvgesByScbjjA2/mkXzHb7qbLTNCHqfTKTeSmdKXLPedCCIhgnlGrwUMhU1wjQcVzddYHadixPZ+lXjE1Q2aAFWywUZpKMQfoLGhFhIBliFAlGxYj7AymULlSYUD5oCpYGOWkyw2hhL0B5X5GT7dPKhA5HmfPMMFuEiCkGxdM3Hsqi3mAp4qlSGjpYt5/PFCoN/mHIwJ2ayeUY1tUY5l80Xyk0UrLZtY34BGvzGVrUkHmApB5PPWSxBhl9RJTLvYamyRTPLG4kVli3nCpUKw9Xr1UKuVGVL8NMrAVYqna9yisVmYQpKptMVQ8NUBzSU1Zal2y0xXzgTROXXfSLkPLGm61fMrZYoWKS5oFiFAsNWiln4yla5WrVSqnBsJp4sVSr+5JNKF+osb5TJN5ksq3IiJChgQWK12k5Tdq1y+nhOPNcoRrCQqVarCW7Lx3J5njBRb9Wz2QpbLhbL0NFCXwvdbbVWScSSlSCIkFz5Yq7YyGOeZfP5mpwr2i3LcVHJIGUlwXKFZGRO1DxVBS4/70OwCFYdsVwfy67WaeMDX01DKuQZTPtKYAzLpGNphi2FWHDFiNkk9j7pYr2WSBht28UgwlcoIGBeyka8Bf466stogkliVLoIVyOCxfERLIUtVbD3r4RgDFNMJEqet3A0AlZR0/KkVUzm8snLpNV20P1uC5LLNVTbKh9Up0qYXZG50ct9n4xgOQGWK4p2gKUJDPKUUbVCsHIhW6Ipn07nMpliNsPDpJ6MQ42ayOaurwo21JJkYMONAyPbqYdyClyKclJwAY/X/kRltUH0lAxGRxaD3DJVDlfgSkXseUAZymE4y563irlcs1hUTceuJhPQbGQqpVzZJFjYFbg4aZiOEq5vEazonOg1ZKS2CeZEGkfebPlYLuSobXpYMqEqZIlfyiyDfiPZD1ig9aATfKUkUvGzeGxk05VapWbBZIH5AGkPE49hOMZF6CztaOnUo5IkEkJK5Rmvu4HKyzzORhhHy5TQMaVcOhG/jsVT+VIZBmUJhySD3ipirdas8U3ozFXJslnIrWS6xktQQ2BWgUpAEG1Vse2Lk3WkQzkVRS+YtNrCAKLf9JZvrlynWFicSuiYQjYV+/zHH58vY6kiBLRUBqHgKqV0qoGVbL0u6w66xHLUTBxyXhFk8BK0i1BDQCwtG/TZugj1wQ9jJNMlKbgUGj4TOs5AIIol1Q1vPdU0xXK1zkJqpa4+ffrt779dFTCIgAX3lvNY/ll6rW5BS+EYNlRY9Xg8xcM0CEjgKEuFNtuFit6wlQOsgyUIYtRz1F184KtGw/J91WrJdd1ftTTFSkOqlRmOyVz+8dvf/n5VrsBkBEFkayxTNxxoUQ2uYsKPdqFod1yrkWU0UTHBWVBBSEVGw5y15Xr54pQq5PLLeiKqJ1guljWttlqXQYg18j5CpaHUyyxfy11+/u1v/xWvsjgUIbWqgAXJ51haMWc4JmApEEnXFhStkGZdF+6xuURKMmEMGZVE3FsaOVpHCqiUY29BfiGZGWC15FqtCsVCFY0p83KtwlSZfOzz7//1tyTPsRxL9bVShUHhWGoBamaosAwRvrEVwZQzsRzIheOapVisASWXI2QPVgNPNjEolhLFqvO1ugDZZRAkF/+J9RpZayY7BhXAYirFfC599fnTpyLP1Ro1fBCcxpAiVivXbGgnXFu2XMsxtZaWvSJYjlG8igkwEBwuHru6+NXqFgULsUQPC1dwBUFHJDSoIGp1CBEoAPnhvFxnmUI2V0jGYulqjasJNdQy+FNScC7QS1VIdnCKAW0hADo2A1goL0bhMi7puu1w1+CtaGodaDwxnLYPsGBAwkgURFXTDTRdrnF8HSoYglWpNMBbLFOscDARZvIlttbgUOPBYfmyBhxKqQ6/jIEjztEVGJlWI5bFxSlLywOWXGFrxZiHddhVR9zle0sKUl7AhIcogqSiuHJVluVgIPA4N2NlKkocw6FL2fjnz5dppgbSAFxspZxNN8BbCqNgl2O7MF+prGrrZuM6rUOvYYrpy5ggpslWC1kNpHbUWUeGoiRS4SKzIR2MDZ5gYVaBVtbqPEO0nG3ITY6tCc1mg7n+7e+/pxgO/AgPVbGCgLFoazw0NoCF68B6qW5bBhdL1IBKK11fgs7FyVozYpGlIQt7SSNSDp4Uqk1vYmyEWLxAisJard4AFoCRZBESrd4UeDYX++3vn9Isjk4PK1NsWo4hG6jxJjbRaqFg2CZzdZ1RDE1KX37+/NnbjvKX3RBJCxqNYFiSZiNS12MNEXbY9booNXCKhO/rZHqq1yCqDNcUuMz11R+fLrNARWbqKlOCMqsE/Y5QB1HVQIENqZpJNR3ESoimxOHS6Wd/v+Co84nUzJHeJ9paR4r6GtcQcJOsCh7kmxw2YmVQMKYKWInY1R9/XOVrHK2eOVKdZmRDY2AOsnXdNJVqJplgiC5c8xYH82hA5XkrKEy10Ed+5EIePsAB4zgO5LMGeglxqoG3GizRLUhx9FYtffXHb79flXiIKcECb6VTJV1XSmVId10zTCEXj8ezpokDr24L6Suy0Bx4C8MXKgStUIN8akbWkQTfTTXKBVgceKzWqNcwz9gKzMoVuEWsev7qj98/Z4h24FCA3MqmU1Vb5bIlp2Vqim42U4CV1FwGsDjLrB5s+lwEiR50PpBjqtdg+MUNWXzDootvUC6OegsMWptqFdOKJQLBAxYPKV+A4qAAVJhriEWCWNCb2VRGgH5a0gw5C2VzomkD1jVrWXwsunMXzImep8BRpMCJzkNk7qGuw4TnQyxv85XhpSZPrqoNHso8eE6lCF01NIqgrRXSmJHOp96EhieVK5YKZZZFrHi6nAOsqmXVYiHVERah8rDUsMkQm8FuxlmsSqWmSHA3Bhqf1iA6C4MQmBiWtou082HVAhTK0P9Ac+FvdEIMr0HRakfeiiwGqiqOQNX3lp/6TSFsMX6FJZMQ8/A4jgK6rU7GIFFZxluDKMtFXKUslQowNDC3EknAugYsk706xQpSHjvXQLVQJBCL5BXtrvnzQeQAiwenMFyDh8nGR/KxCCT2HRkoqFNJuvTWzIKr4nF01nXN1vJRrKujWv5ATCmWKAmNwFu8AOlcJ1Qczoc+lqw061UYC3WeY/yulehohcBhDZGN7r6mFTmf9E5BAFfNllOXJ1haFCusU32sxiFWI4rFBFhERGo+VaXCBDek/S9nIxt3gCWmg1MQsRhvi4nLKNexykewyKTjYaFMECy4DLGqEW8JHK7QMOHiAy10PCzQ/0wIlUxmlFqSHmYhXLzTiB9hHe2QhS2Q7OeW7y3wF+Q01BI17ii3qpJcp71zBKtc8rFwX516y49iVq4kIlgNh78+CqLh67ynpmqA5ZcPgkBE1dMttds1676ceoOOYtHzGeexSG6lgj30rBJgXUPKNwOsUOWhpAmmHwRRjxtsMVzcbQDV6GaoQ8SqEYFgRfE8Fl2gDLH88wZZlfWPZ0DGx2VHOMIipZYZlIJndxa9+RHSXXIHN2A9wZt5fG81oYDwD0sFXKWyPyYhiMFIJFhpmeSWl/NJzRFPcstTecUXB1K7w79g8ycoA8FVCDW8GSrVw9xqNmu0xYhml68UFCsTFYgUz6fC3MqYthA/zK3oci4ua1EfKYetmUSXBM3+cDgErGFX4iJBBCxBoN465Amxyke6lSw1steBuwq2XY9dnlX5sE5WCFQwKZKKHqmk1pBaz5LqJ1jVY0958w8NItWtQB+SyUIzHw/O/pRs2ysgIil/vOVDsNRjLFHtUKiBq/C1YCDSnMd6tBxdmfTmQ/8CgbMHJ39KavE6OL9VtQ3m6gzW0S5ngCXRrQNZkdT2YIh/+i2jWedCfQhSvnbAVPZjiO00GasVsrSMZOSQTclgfarr64at5CLnMw4mnzNYCl2DkLV2pzscoHXNZqRmJlishxVFKpc9LlAJLLfqmg0Nj1C11GyaHkjK6c2kBxVPSJaQOsYyTvf1D7EUozNAqP6g78gCqZt9LrbqBVEQagEUjsdKlVcaFaJoimT2puvNZrudjlZLJUuDmJL0vI+VUa369Xks9RDL95wOTQqEb0iwuobkdRteKY9g9MAijERfRIl0yd2bSVdoak5vsV5tdrst2KavuOsJ4512Y0zBc1c8r5u12AFWMBLVw5FIpyFFtm6GfY+qbSrB2u5BFBGr6WNhY18XjNF0Op3cjCbT6WaPULvNYt6XCkXZZD1vpUWT9bAYQ6/ELo9S/uR0hjcSEUuxBjdDStVVm2GfGAQxxPKDyBr90WQ2m1Kbzdb7/W6z2iwmJpdP474iOScFJXNRV7MxxErwppK//E9YwXogxVKNTm9AsLptSxSwJqb9op/0/pwIKV/3glgfAYtPBZfz1Xo5nSzmLgsdWSaV9rDA6hYfR660bAiZ/y8W/tM7/T44CgRUlyWs8/wgkl7RqwS9ycfHqt1EsEbd9mg+Xyzmy5tGDvfs6lIhOAub1YwSYMUKmlGN/ycsrw1T/PLZ6aMB10CXvL1Fsjjib5TVarQNBJVv1ql2lpk2Mo37bRCVvsNX5TFQzeb9Ku485fvDang0kDWldOw6VjG00mHGw0jE9RojWs2TVtY24Mrt9oCq14WZsKOI/pZB2O775RaZfOq+QMjT8bBriTVsbGtspWItF0PT1BnIp1R1Nqim/FOU8WTT5BPQjZly7uoMVlgJ0pJLUZ2eC77qgfV7jmZDGNuWBrWp76awOqVtDWJ53qrUbFvmq3S5FO/jR4uByFUrIFgpZdEtRw405zCMCdEU0wdnFqnKo5M0lZYPdCJUzE7banV73W6vbUhNicyGfb1xgBUWp9Rb/mRTrrAMnX08ZmM+FOGuqilUuwszH2LFoZuWkhnVbCRPsY4UgqxLqu0uWK/XdRWs/lBRBwOn4e9yhksQYQXBB1hlv/rzOsT6dCxg6dwZDWYTMRPFyulGlTUMPn5EFc6JNOPJmrciE6yOYxMFheZVxwFpnMVifSwWnRQe5w/rCG44V7GKUCfTRZtJBSeHcQVCNMSmaXDnscJleTIzA5jhtDsm3RoDMFLTDNpKgBWIPEO5AKtRZUN3USyCxlRrneUA3FVi+rOxnIt8tiCRKYqGooC3Munk9Xkskl+0QiUlKdwECyIuVfpOs36c8rSoYjjEYryqOeIs0kPWHRiLfLlYbM87bDo8lh5nQBlhvFkWDnsx/fk8lqpGtoL9pSPEkrpE6vt9NeIs5KrDLACDQ+H5pqy3WjJbPo0hW+UdUC61XKgMZ1YhFcGq47kY0yArypZZ+XxYy0dOBqqHpw28ptVAoYc5G9Qx4izAMjf7u7u72/1qOlust7uV47fSFSaoTdmmNVou52a5IMzmdi48ah2P18gat7fpZ1TOrkFEt8cODySJrUF/eDMCrJ7kL1BSrNZud+vZHsuEKXfgKLI8qE8Wi8Vy0WYrrcXcOcDioh+hMJjj3PLa+9M9YcqlQP03HI0HMEEaPOUiKc9Vrd1u72NhRTXlvQhSulKxxNmzJcw98FdSJrNpq0BPgFMs1gg+BQMyVT7Bwj/BlBjtDQmWBX66GU8GbnfgNkIssOZotyd2e7tbr8dto1YKM6tcLBTqfXDVuN2BOqLdms+mN3oxIlsVulVB5xm9dGYk4nmRM0Eke+jtQR9KqElftwddKYpVrTYmux2hWk86plhjI+OwXCoUmB4k+0AXmt3FctSbg82UdIhVJLtZHtmBt2KHLcaZUxBNpddvt24m066k9vp6BAsFouth9TSxGlEtclUsKVDTDLU6y0oQxjHB0jMhFlQ2FIp8aOjQW4erbmfOfxu9nqUPZvOO0GwN2pEoEiyA2q13247E+y1PkPRlprdcjnXcruJuFqvlfDGfT+V0GEWo/ww/6001dzAn+vpwcmbEPy7v9HuG0p3O2o0GXMoUqkbrh6oxmdz0nPl2QBaSKpUIFNQS4+XMIXtnXH+5Wk4hoBqTDuutZDOgsmACOvaWPxSVyI5PgCW1+z1Nai+308FgPB63Wm3Hdh0QQRwlRtuVoALrbCZy/UhJ4VZbLMcqxpYRxovlfLKcWyVsX/0gQhFv0g8MWZaUPl4aOXM6I5Jbeq/fkcXe09Pdw/393X66u7u9BQXFwQdKtV/Yda6uTpYGf4hVLlXd6Qq8xeLueWuBJepy3tFVDd5eqOfITM176Q5sYvZzuOVzWEGoZ+RUdEHcRbGzXC7v7h8eNjfj2RgaGyjQl4vFBmRrM1AltbXqNaJYeIhFgXQCGa0USqwzX8xmKKrT1WpBMt/NJ1OZEsktkyz8qWI58YvC5hyW1IIYCmL3Zji9vX+4m0AN3b1ZbjbL2Y1juiNst8aW4SxXbrUUzojlUr7Qgt9kMVHz6ZII43AAJf0Ckbz2o6NJiu7Lg0XQlNJhEAOVPxNE0Rl0ZEHqIdbd/f5mMFzswGuP97eboWNavdVuv5v1x9vdwqhEsCqF8gCw5u1aNstCCMfuzZxw+V3RbDbu2TSvaHJZdDfqBEs+iyW3B67YVAaj0eLu7v52sdzdQ4rd3eMMvZlPRuMlJNh2CzoxqYfuqrAVBrw170hMsazMFrOWNVpQd/nN2mw2Gbo6pBmeCmCrHCfwhasTLKhq1DMqL0NqmaKoD8fj5R0k/R0xSHryFSboJfwAaAO3+9utXoqmF2uvVgOJY5jaYLnomZ0ZwZqNBl0bD8XbnfF0MmpJ+Thd1E2kiqmrU4EIsSIfPgKeXr+riUrrZjyeQW4RTxEsuAAqsM243R6vUesHLDkGi3vDEE+2u17adejKjMVq2h5QqklLruGyYA6eJ7Qnk3G7THbIEsl0oXJ1RregjNfCTUQfSwJndS2zMxiORuMN5BTBukWsh/tbOk1vxuPNfgd/FyJMg2XWW2GuT9ZTBURXmS7n/SGJ32IxahZS9POS0DUWnelk7JbJFlk8VWai26/+SCRiGskt6iy124dWEfvq0QypgAXSCkQLsaDEIgXEbgcXk+1u22XyBYbzsNTleiBUueZ4uRh0UU0QaypnQEVpe5GI58zxZOJkYpd/fPojwZWvzk0+sqJG9/XJQRHJhPlQ03SrNVw/ELvf0vAB1t12s9niTI1U2854t50383mG7qQz1d564dSrNXe1GLfGKyCa4FqEjTpKJT4Rj+XM0WTciH/+9Psl08yenRPlM0d0FbfXVbElM9ePj48Ywocw79FLAARggDbUjfl2bRRzJXIYlmWb89VI5jhpupq2uqhgXXcKXDcs2dtM4AcBE8mq2J1M2oWrT58KWj3x+XPIdYIVHYk6dNVyU2hI0yfAut9Dxj/sdh7WnVeTYiC3HUXqbDbdSi6Pq8rQV5irZYvnGsPlcuhMAGuskJJwJiVDrETD7IwnYzH56RNncNefj71FNzGUYyzJ6fVdCbzVeXyCAK6Hm/u7h9v55tajwkqLpv1+pjW1xXZhljJlwsUN1jOj3gA/zbudBWB1qlkB3DW3snh8MolU8WvOdqG+HFY/f24YzRQ5nBEdidHPREU+igETT98CLGWFVLuu2kJ/LQZLwnW/gzlvsyfqtd+2hOYQpiQlU8Bzuoy6XI11Eeef6WCEMXTKqYy7mC96pSR+DhDqiOvra9Y0+5PJ1M6VNE1IBWdGwiCeHvYBLK3bb6uSbIweMIRjmW+MwF27wXCLVA/L/mCyoV3PbjdVhNZmu7ZzmSI4ix+v571OH9w0G8GsAzd6KZ3kZ/PFVEinU4lkJpWIXV1VTNOdTKcDHQqbfOwYK1qaRuotycHiQZ3fPkBmgbNgnjD2MBBnvTFx19jqLAEKhAIH49Dpr7ebdjGdK1fqnfVq6Iyg9IMZ/QZKh+VYKqXT5QGIRK+cjv3+KZ6KA1bZ1PWb6XTkWrqYvIxQxUIs7WivTpLbvZbeNO4eH5+eHu7mrUa93hjDSNwOenOg2o26cyi6NpsVaPxuuxy5k+1mblTZpj1arae2MV0vl+v9YroE1eo3ShA7cQolhJ6P/fZ7DFIrdl3RhZoxnowUpimlrlBWyT4/WPQQnnKE5bZVkWI9PmwnNi5vKWvQ0Vm3vwGBWK5wKG7WiAVcE83dbDbr2XS13aymrmyBs+bruw3IwnI+5Esw8rImlF03PGQRytZ1nJHLRbY3GeucrpMNM6qzYOewJA+rZUuiAFhPT4+387GNGxj1LkRxN+wONkQggIsMSNSuhSpPgWuz3W6WI1vWxuvVot/qjjC15lOxiJlebEMF6RSuY55uSaVc3p5MnWpTLyaS/ufm4eLidFXe95bWhdqhqWyeIIbb2dhqKgp8O9rv71YdZ4JVhNdQk/lntzEb4K7lHAqWliqIA3Dj2G7UHEyt+UQqkZ0objSZTUy2VMmmctlsU86n0+p02irmpFIq7X1sFy08PHzyWS2rZ2Bpc4MJvxq3mrykA5e6AprxYIsVvUe1W89wr6IjOevtrNftuFACW6vVetaRWdYhSxDjZjmPP7XUmUNoJ6Oh2SiWtFGXzWQUKFWLWbGSzuBn4OinLHNnsBQ695DUEiV9DFj3s4GGpwEbgqjPCNCdR0WLiDlK/Wq+3m7Xc1SpxWSxXi37Klep6Oit2aBZYcpMQ3KgjLxbQy04n3X6415XLOXN6bRXzorVHJ79Jx8wLhaLJ5sr3owoKVZ/2HY6/RsI4uPdatp38Jmt4c1sD6JFzSPb0eyi+01bcgN8iwHpXMUZcA4cgakKMPust8vVZosdymK1uTHVWqncmk66TEGuF0uBlUu+nHqbGDouojit3uBmgqmKs9geM34NmrSCoYWdCxHTeyy+KJ83ZyMTyXhiG5x8sHOtT1ZQnbbUqjx/eVhOx1Nw1Xp7e/fw5XFx09Xq4mAyGXBlVTjYJg1GouW2e8PxbLFcrYktF7QnmO9B4rcQifVqSwR9e0twkOjOc5k3MRI+6jOwlcvhIjh3A7/N7mHujL48rexmQx2MBqDQ9w+Pzy8vz4/r6Xg8uRFYVWSCEztwQbF0zZjRUoC8J6bHnHR28JagW4+32/UGKpg7UpySWpDw7HeAuFkDCSWiVEQjwCZNqCSq3GC1Wt2/Pe1uvzzuukqtBr3UeHO7vX14+fr6+vr2NJ9Muo2aLLH+8jXeerml6su9t4QGPwviBbamdzyAmsK0DK3q3cPD7Wa9v7/d7iggRvOOxI+UqFsPi/5u65WJp9W5LmCtn76+vb2/v7297qfj9ePXj4/394+Pj2/fPt6fVlChNhpik6vVQ0NvGbqqANZqTSsW7OPRMw+kdL8HkX/YLZZ78j0AQFu22VF3kermntwLjl6vsVrd+bm1WncbXJXlXMDaPL+9fwWyj+8/Pl5fv377Dvbx8vz28fF2txrf6EJTlr3PCNCTwDSIiqwvd9MZKZ+2WKwAwy3WoVBRPUDKb5Z7kuB3+PNxCYIkO23MsKoniQVY/nik6bWaDCxRxtp0/fL+9vwC/vr2/SsQfgNHfbx9ef76+v66no37iihrOt0E8OyCzDuKpC134xEJGjhqt4V4Qc7Q9L17wnoZ0mu1AaYd4SJJf+e3i75+3dJ+w096+LKaz1drcNfd2xt4CyKHRBA7DN8rEj7PRuOeIoMEKFLELlQ8GaXK+mo3GtLkurvdbMFb2zVJ4c1ySwrm3Xa1hiYVMLar5XobrOVS2QpHIlUKiOgaMnSLkIC1XL28PL2Q9Hp+fkew79/fbxf372/349HIURVNxw93hnbh7SAay/10tCcLRHe38xVibcnP3Cw3OBSxyyFD7+F2PXbdVqd3M55BcUqUlPwLRuJ2Q3y1mbecwQRa5+EE3AWS8PIKufTx9fXjO7G3uTF8fVmPx30DP+x3eFaY7pAZurWEnN2jLgHWArx1v4HeCxcalisoTnfz1e09BBJEa7Pu40osfnLcRt0dT5ebUB8oFsn5Pq7D4LKoO19t73cPXwGLJPv3H/jl643WgcpkMnIN3YgaCtaFRZdUnRXEi6Q8+Gi1h2TarEh9t16sYTDuNg8PwLjdAee6iwssTrvtmOQ/sHFaE/DVCgR346UVoRq75L+dQhsu94/LO4pFwYDs63Y+AYmc9K2I0X0Ww7iwHTS7tYLsuaUD6RZUGVJ+0hkst8sxTDZQQjw+QgBvSa5suvi/xLjtbhs/Ew8vdueAddPu9Iaj6RxnCYjgctQmb+y48K812Tyt919eYQx+D+zj/WW33i0nHZsiRMwyL7xPN3XWkB/YkkIIbidLwNqOW/3Ven6zAEEGLij47naQypvtqmuTD7Z1u95nV/rw+2z79MPynS7ueExG/U4rNLc3f3je3359+/gesW9f4HWzYdv71FfU3IsOWLvT7uG4Izs3gDXfINak1R7j7Axj6xEH4y0yrzbrZb+NL+p0O+0BgvQWMDQWXXIfcuFmcsc3+t9ZdG7Wzw8Pb++A9c2P47fX3WK3GveCZ7bb3g3cXvSIdfurEAtEE0firHeDkcUVSezI7kAUNjDuV8tBz7cBbmdPICW3N/RtcCeZ3PrPwF1c+Ka/fPkKcoq55cfx42m1WM2HvXPWvRhQu9lQrA1i7fforeUC++c9iBSZru+2uLGDIjQcBNbv98dYWMwH/8FwR3nz/uXL25snWeCq798+nhbz3ZKelDmxixtqI9R0sqYAWDtcHt3hjwPVACyYESGI8NAK57el9wo8vDgcjrGD3YyGN782PE84e3l4BKxv3wgXRvLjebZ6Xo3Ov+RiTG2CWHsSRQjiBiYfdBxUcPPldgul1+3jA/RWUAZCJea9ZAR2g331fjcbjca+BVfBffjE6dPz6/sblg2edgHW6vFlQR8dBa/0ri+mE7rCutnROgDKk7v1GqIIFQXOZlhowe32AQYjZBliTcmy7ARsPNuhS5dkiXZK7iRfp+E1tcn0EYqZQ6yX59eHOX2f6bFdzKktUAixfNiAzzYb1FMceDjnQMKB3dJVtzVMcVBOkxVjmIbJysgKS3OsHPFeshswP7W7929RLJirX99e7+hrZicvuFhSW3lY4CxQTawg7rGRhxzfEiy4G1d0H7AahWxbYZsFtRdus2Axi0m3Wh7a4uCb21fw1kcEC4vCW/oafLNDu1h7Rhb2cG0PZHOPAnFP1GIDWP6Mh7UyzEG7zQ7lfu+tvCH6mnxZrX9lgHwHrnqLOuv9/f0rfTFNFt/IXRde1bbdkXVQMiVivY7e2pOWIqhYtkTO6BIqKVX99cCwwDpnG/ogaDzxlq8QcAlYkVcfvOhiT1cRvKqJeuvO+6l0sc+r8Xa0x/DNW0ANSi2yihq16He41f71/Z3q1jePCibFsGnae6Hy7CJYB6Vu8oxkUfSO8IF72on5d9AK9e729Mm3wRfyaIiFUo9cb8/RZx+8w0U0LHj7QH7uw0NwfxA47/ree0L45eBpB+Z5ltxCcfr67lMRZ3398vAru3gihmtYT/gXL0kdQ8z/Hh+O2lP4wCO9eDprjw9Pz89fvpBnPL9C5+PHkHC9fnk8Y/jkp4tnfB0auX32LLx6Du/ynnb67Zfj5wWXbz/+/PHjx/c3fMPXYE7EHgOxvDcB/i/PL1+/fgnt4mvEXl5egquvvzBo8/znQrf+8usn4nO+/fz5119//fzHz2/4NMQi/vI617eXryAaX1+ev358//Ovn3++hj/94i2wV/LnDTtw+gXvoo9439EbvA3tjf4L38R7Cn75+IlYP//6+fMHeYi00tRATmEE/Pjnv/7x59v7X/9A+/lBXvyOXy7859GXBK8L3+Dw2n/y++GdJ08hd/z4CT8M7B//+BHQkB7xg+b8j3/+97///S/Aplg/wre5+H5g36Lf/Aju9RqWH0fP+3HuydH7/vKwfp55FN70J1D9+9///c9/UKyffwYPXvz48advf/3pXf/488/w3j8xaSMPRB8Jn3HmGi9+Uqq/fpDUj7ziL3yzf/77f/4HsP7lYcFf/+H/BX764l//0Yr9AAAAJXRFWHRkYXRlOmNyZWF0ZQAyMDI0LTAyLTIwVDAyOjMwOjUwKzAwOjAwQeu+6gAAACV0RVh0ZGF0ZTptb2RpZnkAMjAyNC0wMi0yMFQwMjozMDo1MCswMDowMDC2BlYAAAAodEVYdGRhdGU6dGltZXN0YW1wADIwMjQtMDItMjBUMDI6MzE6MjUrMDA6MDDQnGoJAAAAAElFTkSuQmCC;fontFamily=Times New Roman;fontSize=12;strokeWidth=0.5;imageBorder=default;" vertex="1" parent="1">
                    <mxGeometry x="321" y="200" width="40" height="40" as="geometry"/>
                </mxCell>
                <mxCell id="13" style="edgeStyle=orthogonalEdgeStyle;html=1;exitX=1;exitY=0.5;exitDx=0;exitDy=0;strokeWidth=1.5;fontSize=14;fontFamily=Times New Roman;" edge="1" parent="1">
                    <mxGeometry relative="1" as="geometry">
                        <mxPoint x="521" y="175" as="sourcePoint"/>
                        <mxPoint x="582" y="220" as="targetPoint"/>
                        <Array as="points">
                            <mxPoint x="540" y="175"/>
                            <mxPoint x="540" y="220"/>
                        </Array>
                    </mxGeometry>
                </mxCell>
                <mxCell id="14" value="&lt;font style=&quot;font-size: 14px;&quot;&gt;膨胀AMF&lt;/font&gt;" style="rounded=1;whiteSpace=wrap;html=1;strokeWidth=1;fontSize=14;fontFamily=Times New Roman;" vertex="1" parent="1">
                    <mxGeometry x="439" y="160" width="80" height="30" as="geometry"/>
                </mxCell>
                <mxCell id="15" style="edgeStyle=orthogonalEdgeStyle;html=1;exitX=1;exitY=0.5;exitDx=0;exitDy=0;entryX=0;entryY=0.5;entryDx=0;entryDy=0;strokeWidth=1.5;fontSize=14;fontFamily=Times New Roman;" edge="1" parent="1">
                    <mxGeometry relative="1" as="geometry">
                        <mxPoint x="508" y="200" as="sourcePoint"/>
                        <mxPoint x="582" y="220" as="targetPoint"/>
                        <Array as="points">
                            <mxPoint x="540" y="200"/>
                            <mxPoint x="540" y="220"/>
                        </Array>
                    </mxGeometry>
                </mxCell>
                <mxCell id="16" value="&lt;font style=&quot;font-size: 14px;&quot;&gt;膨胀AMF&lt;/font&gt;" style="rounded=1;whiteSpace=wrap;html=1;strokeWidth=1;fontSize=14;fontFamily=Times New Roman;" vertex="1" parent="1">
                    <mxGeometry x="426" y="185" width="80" height="30" as="geometry"/>
                </mxCell>
                <mxCell id="17" style="edgeStyle=orthogonalEdgeStyle;html=1;exitX=1;exitY=0.5;exitDx=0;exitDy=0;entryX=0;entryY=0.5;entryDx=0;entryDy=0;strokeWidth=1.5;fontSize=14;fontFamily=Times New Roman;" edge="1" parent="1">
                    <mxGeometry relative="1" as="geometry">
                        <mxPoint x="494" y="241" as="sourcePoint"/>
                        <mxPoint x="582" y="220" as="targetPoint"/>
                        <Array as="points">
                            <mxPoint x="540" y="241"/>
                            <mxPoint x="540" y="220"/>
                        </Array>
                    </mxGeometry>
                </mxCell>
                <mxCell id="18" value="腐蚀AMF" style="rounded=1;whiteSpace=wrap;html=1;strokeWidth=1;fontSize=14;fontFamily=Times New Roman;" vertex="1" parent="1">
                    <mxGeometry x="412" y="226" width="80" height="30" as="geometry"/>
                </mxCell>
                <mxCell id="19" style="edgeStyle=orthogonalEdgeStyle;html=1;exitX=1;exitY=0.5;exitDx=0;exitDy=0;entryX=0;entryY=0.5;entryDx=0;entryDy=0;strokeWidth=1.5;fontSize=14;fontFamily=Times New Roman;" edge="1" parent="1">
                    <mxGeometry relative="1" as="geometry">
                        <mxPoint x="481" y="265" as="sourcePoint"/>
                        <mxPoint x="582" y="220" as="targetPoint"/>
                        <Array as="points">
                            <mxPoint x="540" y="265"/>
                            <mxPoint x="540" y="220"/>
                        </Array>
                    </mxGeometry>
                </mxCell>
                <mxCell id="20" value="腐蚀AMF" style="rounded=1;whiteSpace=wrap;html=1;strokeWidth=1;fontSize=14;fontFamily=Times New Roman;" vertex="1" parent="1">
                    <mxGeometry x="399" y="250" width="80" height="30" as="geometry"/>
                </mxCell>
                <mxCell id="21" value="..." style="text;html=1;strokeColor=none;fillColor=none;align=center;verticalAlign=middle;whiteSpace=wrap;rounded=0;strokeWidth=1;fontSize=14;rotation=-45;fontFamily=Times New Roman;" vertex="1" parent="1">
                    <mxGeometry x="449" y="213" width="20" height="10" as="geometry"/>
                </mxCell>
                <mxCell id="22" style="edgeStyle=orthogonalEdgeStyle;html=1;exitX=1;exitY=0.5;exitDx=0;exitDy=0;strokeWidth=1.5;fontSize=14;fontFamily=Times New Roman;" edge="1" parent="1" source="23" target="7">
                    <mxGeometry relative="1" as="geometry"/>
                </mxCell>
                <mxCell id="23" value="" style="rounded=1;whiteSpace=wrap;html=1;strokeWidth=1;fontSize=14;fontFamily=Times New Roman;" vertex="1" parent="1">
                    <mxGeometry x="580" y="179" width="180" height="80" as="geometry"/>
                </mxCell>
                <mxCell id="24" value="&lt;font&gt;360&lt;br style=&quot;font-size: 14px;&quot;&gt;64&lt;/font&gt;" style="rounded=1;whiteSpace=wrap;html=1;strokeWidth=1;fontSize=14;fontFamily=Times New Roman;" vertex="1" parent="1">
                    <mxGeometry x="588" y="189" width="25" height="60" as="geometry"/>
                </mxCell>
                <mxCell id="25" value="64&lt;br style=&quot;font-size: 14px;&quot;&gt;64" style="rounded=1;whiteSpace=wrap;html=1;strokeWidth=1;fontSize=14;fontFamily=Times New Roman;" vertex="1" parent="1">
                    <mxGeometry x="623" y="189" width="25" height="60" as="geometry"/>
                </mxCell>
                <mxCell id="26" value="64&lt;br style=&quot;font-size: 14px;&quot;&gt;64" style="rounded=1;whiteSpace=wrap;html=1;strokeWidth=1;fontSize=14;fontFamily=Times New Roman;" vertex="1" parent="1">
                    <mxGeometry x="658" y="189" width="25" height="60" as="geometry"/>
                </mxCell>
                <mxCell id="27" value="64&lt;br style=&quot;font-size: 14px;&quot;&gt;64" style="rounded=1;whiteSpace=wrap;html=1;strokeWidth=1;fontSize=14;fontFamily=Times New Roman;" vertex="1" parent="1">
                    <mxGeometry x="693" y="189" width="25" height="60" as="geometry"/>
                </mxCell>
                <mxCell id="28" value="64&lt;br style=&quot;font-size: 14px;&quot;&gt;180" style="rounded=1;whiteSpace=wrap;html=1;strokeWidth=1;fontSize=14;fontFamily=Times New Roman;" vertex="1" parent="1">
                    <mxGeometry x="727.5" y="189" width="25" height="60" as="geometry"/>
                </mxCell>
                <mxCell id="29" value="cat" style="text;html=1;strokeColor=none;fillColor=none;align=center;verticalAlign=middle;whiteSpace=wrap;rounded=0;strokeWidth=1;fontSize=14;fontFamily=Times New Roman;" vertex="1" parent="1">
                    <mxGeometry x="544" y="200" width="30" height="20" as="geometry"/>
                </mxCell>
                <mxCell id="30" value="级联卷积" style="text;html=1;strokeColor=none;fillColor=none;align=center;verticalAlign=middle;whiteSpace=wrap;rounded=0;" vertex="1" parent="1">
                    <mxGeometry x="640.5" y="260" width="60" height="20" as="geometry"/>
                </mxCell>
            </root>
        </mxGraphModel>
    </diagram>
</mxfile>